<?xml version="1.0" standalone="no"?><!DOCTYPE svg PUBLIC "-//W3C//DTD SVG 1.1//EN" "http://www.w3.org/Graphics/SVG/1.1/DTD/svg11.dtd"><svg width="100%" height="100%" viewBox="0 0 101 28" version="1.1" xmlns="http://www.w3.org/2000/svg" xmlns:xlink="http://www.w3.org/1999/xlink" xml:space="preserve" style="fill-rule:evenodd;clip-rule:evenodd;stroke-linejoin:round;stroke-miterlimit:1.41421;"><g id="xs-dark-long"><g><rect x="0.799" y="0.953" width="100" height="26.993" style="fill:none;"/><g><g><path d="M48.528,10.826l0.231,1.416l0.429,0l-0.737,-4.28l-0.583,0l-0.705,4.28l0.41,0l0.218,-1.416l0.737,0ZM47.849,10.448c0.121,-0.814 0.282,-1.788 0.294,-2.115l0.02,0c0.038,0.385 0.147,1.122 0.314,2.115l-0.628,0Z" style="fill:#000;fill-rule:nonzero;"/><path d="M49.515,11.287l0,0.147c0,0.443 0.16,0.859 0.769,0.859c0.551,0 0.801,-0.314 0.801,-0.897c0,-0.532 -0.231,-0.762 -0.686,-1.064c-0.333,-0.217 -0.417,-0.339 -0.417,-0.608c0,-0.269 0.097,-0.43 0.327,-0.43c0.257,0 0.333,0.173 0.333,0.462l0,0.173l0.404,0l0,-0.154c0,-0.461 -0.167,-0.833 -0.73,-0.833c-0.526,0 -0.737,0.352 -0.737,0.82c0,0.449 0.198,0.673 0.628,0.961c0.365,0.244 0.467,0.391 0.467,0.731c0,0.32 -0.102,0.487 -0.371,0.487c-0.237,0 -0.378,-0.167 -0.378,-0.513l0,-0.141l-0.41,0Z" style="fill:#000;fill-rule:nonzero;"/><path d="M52.315,8.942c-0.519,0 -0.833,0.34 -0.833,0.948l0,1.41c0,0.698 0.314,0.993 0.814,0.993c0.499,0 0.833,-0.301 0.833,-1.012l0,-1.384c0,-0.603 -0.276,-0.955 -0.814,-0.955ZM52.308,9.307c0.289,0 0.404,0.244 0.404,0.577l0,1.429c0,0.435 -0.147,0.615 -0.41,0.615c-0.282,0 -0.41,-0.237 -0.41,-0.609l0,-1.429c0,-0.371 0.128,-0.583 0.416,-0.583Z" style="fill:#000;fill-rule:nonzero;"/><path d="M54.718,11.229l0,0.09c0,0.442 -0.103,0.622 -0.372,0.622c-0.301,0 -0.365,-0.334 -0.365,-0.647l0,-1.391c0,-0.41 0.109,-0.609 0.378,-0.609c0.307,0 0.359,0.276 0.359,0.583l0,0.103l0.403,0l0,-0.135c0,-0.435 -0.121,-0.903 -0.756,-0.903c-0.589,0 -0.794,0.423 -0.794,0.974l0,1.301c0,0.653 0.16,1.076 0.769,1.076c0.64,0 0.781,-0.468 0.781,-1.019l0,-0.045l-0.403,0Z" style="fill:#000;fill-rule:nonzero;"/><path d="M55.595,12.242l0.404,0l0,-3.249l-0.404,0l0,3.249ZM55.595,8.423l0.41,0l0,-0.654l-0.41,0l0,0.654Z" style="fill:#000;fill-rule:nonzero;"/><path d="M58.024,9.769c0,-0.468 -0.167,-0.827 -0.718,-0.827c-0.576,0 -0.756,0.378 -0.756,0.827l0,0.089l0.404,0l0,-0.096c0,-0.263 0.077,-0.468 0.339,-0.468c0.27,0 0.321,0.199 0.321,0.5l0,0.538l-0.154,0c-0.577,0 -1.012,0.269 -1.012,0.994l0,0.057c0,0.5 0.185,0.91 0.647,0.91c0.224,0 0.429,-0.07 0.532,-0.32c0,0.057 0.012,0.186 0.032,0.269l0.378,0c-0.007,-0.09 -0.013,-0.314 -0.013,-0.538l0,-1.935ZM57.627,11.165c0,0.5 -0.103,0.756 -0.423,0.756c-0.269,0 -0.359,-0.249 -0.359,-0.551l0,-0.057c0,-0.487 0.224,-0.647 0.609,-0.647l0.173,0l0,0.499Z" style="fill:#000;fill-rule:nonzero;"/><path d="M58.319,9.358l0.378,0l0,2.314c0,0.48 0.217,0.615 0.506,0.615c0.109,0 0.25,-0.013 0.346,-0.045l0,-0.321c-0.051,0.013 -0.148,0.02 -0.212,0.02c-0.205,0 -0.237,-0.173 -0.237,-0.34l0,-2.243l0.468,0l0,-0.365l-0.468,0l0,-0.801l-0.403,0l0,0.801l-0.378,0l0,0.365ZM59.055,13.453c0.135,-0.199 0.257,-0.538 0.282,-0.923l-0.403,0c-0.013,0.295 -0.077,0.622 -0.205,0.923l0.326,0Z" style="fill:#000;fill-rule:nonzero;"/><path d="M59.927,12.242l0.404,0l0,-3.249l-0.404,0l0,3.249ZM59.927,8.423l0.41,0l0,-0.654l-0.41,0l0,0.654Z" style="fill:#000;fill-rule:nonzero;"/><path d="M62.355,9.769c0,-0.468 -0.166,-0.827 -0.717,-0.827c-0.577,0 -0.756,0.378 -0.756,0.827l0,0.089l0.403,0l0,-0.096c0,-0.263 0.077,-0.468 0.34,-0.468c0.269,0 0.32,0.199 0.32,0.5l0,0.538l-0.154,0c-0.576,0 -1.012,0.269 -1.012,0.994l0,0.057c0,0.5 0.186,0.91 0.647,0.91c0.224,0 0.43,-0.07 0.532,-0.32c0,0.057 0.013,0.186 0.032,0.269l0.378,0c-0.006,-0.09 -0.013,-0.314 -0.013,-0.538l0,-1.935ZM61.958,11.165c0,0.5 -0.102,0.756 -0.423,0.756c-0.269,0 -0.359,-0.249 -0.359,-0.551l0,-0.057c0,-0.487 0.225,-0.647 0.609,-0.647l0.173,0l0,0.499Z" style="fill:#000;fill-rule:nonzero;"/><path d="M64.675,7.904c-0.596,0 -0.91,0.384 -0.91,1.089l0,2.198c0,0.679 0.224,1.108 0.884,1.108c0.615,0 0.916,-0.378 0.916,-1.114l0,-2.192c0,-0.641 -0.262,-1.089 -0.89,-1.089ZM64.662,8.276c0.32,0 0.487,0.23 0.487,0.711l0,2.21c0,0.539 -0.167,0.731 -0.481,0.731c-0.301,0 -0.487,-0.199 -0.487,-0.711l0,-2.237c0,-0.487 0.154,-0.704 0.481,-0.704Z" style="fill:#000;fill-rule:nonzero;"/><path d="M67.577,9.769c0,-0.468 -0.166,-0.827 -0.717,-0.827c-0.577,0 -0.756,0.378 -0.756,0.827l0,0.089l0.403,0l0,-0.096c0,-0.263 0.077,-0.468 0.34,-0.468c0.269,0 0.32,0.199 0.32,0.5l0,0.538l-0.153,0c-0.577,0 -1.013,0.269 -1.013,0.994l0,0.057c0,0.5 0.186,0.91 0.647,0.91c0.225,0 0.43,-0.07 0.532,-0.32c0,0.057 0.013,0.186 0.032,0.269l0.378,0c-0.006,-0.09 -0.013,-0.314 -0.013,-0.538l0,-1.935ZM67.18,11.165c0,0.5 -0.102,0.756 -0.423,0.756c-0.269,0 -0.359,-0.249 -0.359,-0.551l0,-0.057c0,-0.487 0.225,-0.647 0.609,-0.647l0.173,0l0,0.499Z" style="fill:#000;fill-rule:nonzero;"/><path d="M68.199,12.242l0.404,0l0,-2.236c0,-0.385 0.077,-0.686 0.39,-0.686c0.238,0 0.327,0.135 0.327,0.493l0,2.429l0.41,0l0,-2.275c0,-0.352 0.071,-0.647 0.391,-0.647c0.269,0 0.321,0.205 0.321,0.468l0,2.454l0.403,0l0,-2.544c0,-0.621 -0.294,-0.756 -0.602,-0.756c-0.327,0 -0.493,0.179 -0.596,0.378c-0.07,-0.276 -0.25,-0.378 -0.5,-0.378c-0.282,0 -0.455,0.141 -0.551,0.359c0,-0.109 0,-0.212 -0.019,-0.308l-0.384,0c0.006,0.16 0.006,0.359 0.006,0.936l0,2.313Z" style="fill:#000;fill-rule:nonzero;"/><path d="M72.96,10.691l0,-0.73c0,-0.558 -0.173,-1.019 -0.782,-1.019c-0.634,0 -0.814,0.513 -0.814,1.019l0,1.243c0,0.66 0.16,1.089 0.808,1.089c0.692,0 0.781,-0.557 0.781,-0.942l0,-0.025l-0.397,0l0,0.025c0,0.333 -0.064,0.59 -0.384,0.59c-0.34,0 -0.404,-0.366 -0.404,-0.705l0,-0.545l1.192,0ZM71.768,10.352l0,-0.417c0,-0.359 0.077,-0.641 0.404,-0.641c0.352,0 0.397,0.334 0.397,0.635l0,0.423l-0.801,0Z" style="fill:#000;fill-rule:nonzero;"/><path d="M73.453,12.242l0.404,0l0,-2.127c0,-0.66 0.179,-0.795 0.461,-0.795c0.25,0 0.353,0.173 0.353,0.487l0,2.435l0.41,0l0,-2.512c0,-0.596 -0.289,-0.788 -0.635,-0.788c-0.301,0 -0.5,0.135 -0.596,0.384c0,-0.153 -0.006,-0.262 -0.019,-0.333l-0.384,0c0.006,0.16 0.006,0.333 0.006,0.987l0,2.262Z" style="fill:#000;fill-rule:nonzero;"/><path d="M75.696,12.242l0.403,0l0,-3.249l-0.403,0l0,3.249ZM75.696,8.423l0.41,0l0,-0.654l-0.41,0l0,0.654Z" style="fill:#000;fill-rule:nonzero;"/><rect x="76.721" y="7.769" width="0.404" height="4.472" style="fill:#000;fill-rule:nonzero;"/><path d="M78.477,8.942c-0.519,0 -0.833,0.34 -0.833,0.948l0,1.41c0,0.698 0.314,0.993 0.813,0.993c0.5,0 0.833,-0.301 0.833,-1.012l0,-1.384c0,-0.603 -0.275,-0.955 -0.813,-0.955ZM78.47,9.307c0.289,0 0.404,0.244 0.404,0.577l0,1.429c0,0.435 -0.148,0.615 -0.41,0.615c-0.282,0 -0.41,-0.237 -0.41,-0.609l0,-1.429c0,-0.371 0.128,-0.583 0.416,-0.583Z" style="fill:#000;fill-rule:nonzero;"/><path d="M80.886,8.948c-0.282,0.007 -0.564,0.154 -0.679,0.545c0,-0.224 -0.007,-0.41 -0.013,-0.5l-0.391,0c0.006,0.276 0.006,0.583 0.006,1.109l0,2.14l0.404,0l0,-1.954c0,-0.564 0.263,-0.833 0.673,-0.833l0,-0.507Z" style="fill:#000;fill-rule:nonzero;"/><path d="M83.231,7.769l0,1.416c-0.064,-0.115 -0.218,-0.243 -0.506,-0.243c-0.5,0 -0.731,0.384 -0.731,0.961l0,1.346c0,0.621 0.141,1.044 0.679,1.044c0.34,0 0.487,-0.179 0.564,-0.372c0,0.084 0.013,0.263 0.02,0.321l0.39,0c-0.006,-0.186 -0.006,-0.462 -0.006,-0.82l0,-3.653l-0.41,0ZM82.404,9.922c0,-0.371 0.122,-0.602 0.398,-0.602c0.39,0 0.429,0.34 0.429,0.698l0,1.09c0,0.461 -0.083,0.807 -0.442,0.807c-0.269,0 -0.385,-0.224 -0.385,-0.66l0,-1.333Z" style="fill:#000;fill-rule:nonzero;"/><path d="M85.755,10.691l0,-0.73c0,-0.558 -0.173,-1.019 -0.781,-1.019c-0.635,0 -0.814,0.513 -0.814,1.019l0,1.243c0,0.66 0.16,1.089 0.807,1.089c0.692,0 0.782,-0.557 0.782,-0.942l0,-0.025l-0.397,0l0,0.025c0,0.333 -0.064,0.59 -0.385,0.59c-0.339,0 -0.403,-0.366 -0.403,-0.705l0,-0.545l1.191,0ZM84.564,10.352l0,-0.417c0,-0.359 0.077,-0.641 0.403,-0.641c0.353,0 0.398,0.334 0.398,0.635l0,0.423l-0.801,0Z" style="fill:#000;fill-rule:nonzero;"/><path d="M88.248,10.826l0.231,1.416l0.429,0l-0.737,-4.28l-0.583,0l-0.705,4.28l0.41,0l0.218,-1.416l0.737,0ZM87.569,10.448c0.122,-0.814 0.282,-1.788 0.295,-2.115l0.019,0c0.038,0.385 0.147,1.122 0.314,2.115l-0.628,0Z" style="fill:#000;fill-rule:nonzero;"/><path d="M89.741,12.242l0,-2.884l0.423,0l0,-0.365l-0.423,0l0,-0.448c0,-0.25 0.051,-0.417 0.288,-0.417c0.058,0 0.096,0.007 0.154,0.013l0,-0.378c-0.051,-0.013 -0.134,-0.019 -0.211,-0.019c-0.5,0 -0.641,0.371 -0.641,0.756l0,0.493l-0.346,0l0,0.365l0.346,0l0,2.884l0.41,0Z" style="fill:#000;fill-rule:nonzero;"/><path d="M91.881,9.769c0,-0.468 -0.167,-0.827 -0.718,-0.827c-0.576,0 -0.756,0.378 -0.756,0.827l0,0.089l0.404,0l0,-0.096c0,-0.263 0.077,-0.468 0.34,-0.468c0.269,0 0.32,0.199 0.32,0.5l0,0.538l-0.154,0c-0.576,0 -1.012,0.269 -1.012,0.994l0,0.057c0,0.5 0.186,0.91 0.647,0.91c0.224,0 0.429,-0.07 0.532,-0.32c0,0.057 0.013,0.186 0.032,0.269l0.378,0c-0.007,-0.09 -0.013,-0.314 -0.013,-0.538l0,-1.935ZM91.484,11.165c0,0.5 -0.103,0.756 -0.423,0.756c-0.269,0 -0.359,-0.249 -0.359,-0.551l0,-0.057c0,-0.487 0.224,-0.647 0.609,-0.647l0.173,0l0,0.499Z" style="fill:#000;fill-rule:nonzero;"/><path d="M93.553,11.229l0,0.09c0,0.442 -0.102,0.622 -0.371,0.622c-0.301,0 -0.365,-0.334 -0.365,-0.647l0,-1.391c0,-0.41 0.108,-0.609 0.378,-0.609c0.307,0 0.358,0.276 0.358,0.583l0,0.103l0.404,0l0,-0.135c0,-0.435 -0.122,-0.903 -0.756,-0.903c-0.589,0 -0.795,0.423 -0.795,0.974l0,1.301c0,0.653 0.161,1.076 0.769,1.076c0.641,0 0.782,-0.468 0.782,-1.019l0,-0.045l-0.404,0Z" style="fill:#000;fill-rule:nonzero;"/><path d="M95.956,10.691l0,-0.73c0,-0.558 -0.173,-1.019 -0.781,-1.019c-0.635,0 -0.814,0.513 -0.814,1.019l0,1.243c0,0.66 0.16,1.089 0.807,1.089c0.692,0 0.782,-0.557 0.782,-0.942l0,-0.025l-0.397,0l0,0.025c0,0.333 -0.065,0.59 -0.385,0.59c-0.339,0 -0.404,-0.366 -0.404,-0.705l0,-0.545l1.192,0ZM94.764,10.352l0,-0.417c0,-0.359 0.077,-0.641 0.404,-0.641c0.353,0 0.397,0.334 0.397,0.635l0,0.423l-0.801,0Z" style="fill:#000;fill-rule:nonzero;"/><path d="M97.526,8.948c-0.282,0.007 -0.564,0.154 -0.679,0.545c0,-0.224 -0.007,-0.41 -0.013,-0.5l-0.391,0c0.007,0.276 0.007,0.583 0.007,1.109l0,2.14l0.403,0l0,-1.954c0,-0.564 0.263,-0.833 0.673,-0.833l0,-0.507Z" style="fill:#000;fill-rule:nonzero;"/><path d="M97.859,12.242l0.404,0l0,-3.249l-0.404,0l0,3.249ZM97.859,8.423l0.41,0l0,-0.654l-0.41,0l0,0.654Z" style="fill:#000;fill-rule:nonzero;"/></g><g><path d="M49.502,19.432l0.397,0l0,-4.281l-0.596,0c-0.25,1.231 -0.596,2.974 -0.666,3.493l-0.007,0c-0.057,-0.539 -0.358,-2.185 -0.608,-3.493l-0.609,0l0,4.281l0.384,0l0,-1.711c0,-0.737 -0.019,-1.705 -0.032,-2.204l0.013,0c0.103,0.762 0.462,2.819 0.641,3.915l0.404,0c0.243,-1.282 0.589,-3.198 0.698,-3.909l0.007,0c-0.013,0.449 -0.026,1.282 -0.026,2.076l0,1.833Z" style="fill:#000;fill-rule:nonzero;"/><path d="M51.264,16.132c-0.519,0 -0.833,0.339 -0.833,0.948l0,1.41c0,0.698 0.314,0.993 0.814,0.993c0.5,0 0.833,-0.301 0.833,-1.012l0,-1.385c0,-0.602 -0.276,-0.954 -0.814,-0.954ZM51.258,16.497c0.288,0 0.403,0.243 0.403,0.577l0,1.429c0,0.435 -0.147,0.615 -0.41,0.615c-0.282,0 -0.41,-0.237 -0.41,-0.609l0,-1.429c0,-0.372 0.128,-0.583 0.417,-0.583Z" style="fill:#000;fill-rule:nonzero;"/><rect x="52.597" y="14.959" width="0.404" height="4.472" style="fill:#000;fill-rule:nonzero;"/><path d="M54.756,14.959l0,1.416c-0.064,-0.115 -0.218,-0.243 -0.506,-0.243c-0.5,0 -0.731,0.384 -0.731,0.961l0,1.345c0,0.622 0.141,1.045 0.68,1.045c0.339,0 0.487,-0.18 0.563,-0.372c0,0.084 0.013,0.263 0.02,0.321l0.391,0c-0.007,-0.186 -0.007,-0.462 -0.007,-0.821l0,-3.652l-0.41,0ZM53.929,17.112c0,-0.372 0.122,-0.602 0.398,-0.602c0.391,0 0.429,0.339 0.429,0.698l0,1.09c0,0.461 -0.083,0.807 -0.442,0.807c-0.269,0 -0.385,-0.224 -0.385,-0.66l0,-1.333Z" style="fill:#000;fill-rule:nonzero;"/><path d="M56.518,16.132c-0.519,0 -0.833,0.339 -0.833,0.948l0,1.41c0,0.698 0.314,0.993 0.814,0.993c0.5,0 0.833,-0.301 0.833,-1.012l0,-1.385c0,-0.602 -0.276,-0.954 -0.814,-0.954ZM56.512,16.497c0.288,0 0.403,0.243 0.403,0.577l0,1.429c0,0.435 -0.147,0.615 -0.41,0.615c-0.282,0 -0.41,-0.237 -0.41,-0.609l0,-1.429c0,-0.372 0.128,-0.583 0.417,-0.583Z" style="fill:#000;fill-rule:nonzero;"/><path d="M57.614,16.183l0.673,3.249l0.467,0l0.692,-3.249l-0.416,0c-0.096,0.57 -0.449,2.249 -0.494,2.781l-0.006,0c-0.07,-0.59 -0.384,-2.256 -0.481,-2.781l-0.435,0Z" style="fill:#000;fill-rule:nonzero;"/><path d="M61.317,17.881l0,-0.73c0,-0.558 -0.173,-1.019 -0.781,-1.019c-0.635,0 -0.814,0.512 -0.814,1.019l0,1.243c0,0.66 0.16,1.089 0.807,1.089c0.692,0 0.782,-0.558 0.782,-0.942l0,-0.026l-0.397,0l0,0.026c0,0.333 -0.064,0.589 -0.385,0.589c-0.339,0 -0.403,-0.365 -0.403,-0.704l0,-0.545l1.191,0ZM60.126,17.541l0,-0.416c0,-0.359 0.076,-0.641 0.403,-0.641c0.353,0 0.397,0.333 0.397,0.635l0,0.422l-0.8,0Z" style="fill:#000;fill-rule:nonzero;"/><path d="M61.811,19.432l0.403,0l0,-2.128c0,-0.66 0.18,-0.794 0.462,-0.794c0.25,0 0.352,0.173 0.352,0.487l0,2.435l0.41,0l0,-2.512c0,-0.596 -0.288,-0.788 -0.634,-0.788c-0.301,0 -0.5,0.134 -0.596,0.384c0,-0.154 -0.006,-0.262 -0.019,-0.333l-0.385,0c0.007,0.16 0.007,0.333 0.007,0.987l0,2.262Z" style="fill:#000;fill-rule:nonzero;"/><path d="M64.053,19.432l0.404,0l0,-3.249l-0.404,0l0,3.249ZM64.053,15.613l0.41,0l0,-0.654l-0.41,0l0,0.654Z" style="fill:#000;fill-rule:nonzero;"/><path d="M67.09,14.959l0,1.416c-0.064,-0.115 -0.217,-0.243 -0.506,-0.243c-0.5,0 -0.73,0.384 -0.73,0.961l0,1.345c0,0.622 0.141,1.045 0.679,1.045c0.34,0 0.487,-0.18 0.564,-0.372c0,0.084 0.013,0.263 0.019,0.321l0.391,0c-0.006,-0.186 -0.006,-0.462 -0.006,-0.821l0,-3.652l-0.411,0ZM66.264,17.112c0,-0.372 0.122,-0.602 0.397,-0.602c0.391,0 0.429,0.339 0.429,0.698l0,1.09c0,0.461 -0.083,0.807 -0.442,0.807c-0.269,0 -0.384,-0.224 -0.384,-0.66l0,-1.333Z" style="fill:#000;fill-rule:nonzero;"/><path d="M69.615,17.881l0,-0.73c0,-0.558 -0.173,-1.019 -0.782,-1.019c-0.634,0 -0.813,0.512 -0.813,1.019l0,1.243c0,0.66 0.16,1.089 0.807,1.089c0.692,0 0.782,-0.558 0.782,-0.942l0,-0.026l-0.398,0l0,0.026c0,0.333 -0.064,0.589 -0.384,0.589c-0.34,0 -0.404,-0.365 -0.404,-0.704l0,-0.545l1.192,0ZM68.423,17.541l0,-0.416c0,-0.359 0.077,-0.641 0.404,-0.641c0.352,0 0.397,0.333 0.397,0.635l0,0.422l-0.801,0Z" style="fill:#000;fill-rule:nonzero;"/><path d="M70.993,19.432l0.41,0l0,-1.916l0.307,0c0.769,0 0.949,-0.481 0.949,-1.109l0,-0.262c0,-0.673 -0.295,-0.994 -0.923,-0.994l-0.743,0l0,4.281ZM71.403,15.504l0.307,0c0.455,0 0.538,0.314 0.538,0.666l0,0.231c0,0.455 -0.07,0.762 -0.576,0.762l-0.269,0l0,-1.659Z" style="fill:#000;fill-rule:nonzero;"/><path d="M74.184,16.138c-0.282,0.007 -0.564,0.154 -0.68,0.545c0,-0.224 -0.006,-0.41 -0.012,-0.5l-0.391,0c0.006,0.276 0.006,0.583 0.006,1.109l0,2.14l0.404,0l0,-1.955c0,-0.564 0.262,-0.833 0.673,-0.833l0,-0.506Z" style="fill:#000;fill-rule:nonzero;"/><path d="M76.042,17.881l0,-0.73c0,-0.558 -0.173,-1.019 -0.782,-1.019c-0.634,0 -0.814,0.512 -0.814,1.019l0,1.243c0,0.66 0.16,1.089 0.808,1.089c0.692,0 0.781,-0.558 0.781,-0.942l0,-0.026l-0.397,0l0,0.026c0,0.333 -0.064,0.589 -0.384,0.589c-0.34,0 -0.404,-0.365 -0.404,-0.704l0,-0.545l1.192,0ZM74.85,17.541l0,-0.416c0,-0.359 0.077,-0.641 0.404,-0.641c0.352,0 0.397,0.333 0.397,0.635l0,0.422l-0.801,0Z" style="fill:#000;fill-rule:nonzero;"/><path d="M76.285,16.548l0.378,0l0,2.313c0,0.481 0.218,0.615 0.506,0.615c0.109,0 0.25,-0.012 0.346,-0.044l0,-0.321c-0.051,0.013 -0.147,0.019 -0.211,0.019c-0.205,0 -0.237,-0.173 -0.237,-0.339l0,-2.243l0.468,0l0,-0.365l-0.468,0l0,-0.801l-0.404,0l0,0.801l-0.378,0l0,0.365Z" style="fill:#000;fill-rule:nonzero;"/><path d="M79.438,16.183l-0.41,0l0,2.121c0,0.666 -0.199,0.807 -0.43,0.807c-0.25,0 -0.358,-0.154 -0.358,-0.564l0,-2.364l-0.411,0l0,2.473c0,0.731 0.372,0.827 0.628,0.827c0.282,0 0.481,-0.103 0.583,-0.397c0,0.121 0.007,0.288 0.013,0.346l0.391,0c-0.006,-0.148 -0.006,-0.455 -0.006,-0.859l0,-2.39Z" style="fill:#000;fill-rule:nonzero;"/><path d="M79.771,16.548l0.378,0l0,2.313c0,0.481 0.218,0.615 0.506,0.615c0.109,0 0.25,-0.012 0.346,-0.044l0,-0.321c-0.051,0.013 -0.147,0.019 -0.211,0.019c-0.205,0 -0.237,-0.173 -0.237,-0.339l0,-2.243l0.467,0l0,-0.365l-0.467,0l0,-0.801l-0.404,0l0,0.801l-0.378,0l0,0.365Z" style="fill:#000;fill-rule:nonzero;"/><path d="M81.379,19.432l0.404,0l0,-3.249l-0.404,0l0,3.249ZM81.379,15.613l0.41,0l0,-0.654l-0.41,0l0,0.654Z" style="fill:#000;fill-rule:nonzero;"/><path d="M82.404,19.432l0.404,0l0,-2.128c0,-0.66 0.179,-0.794 0.461,-0.794c0.25,0 0.353,0.173 0.353,0.487l0,2.435l0.41,0l0,-2.512c0,-0.596 -0.288,-0.788 -0.634,-0.788c-0.302,0 -0.5,0.134 -0.596,0.384c0,-0.154 -0.007,-0.262 -0.02,-0.333l-0.384,0c0.006,0.16 0.006,0.333 0.006,0.987l0,2.262Z" style="fill:#000;fill-rule:nonzero;"/><path d="M85.788,14.959l0,1.416c-0.065,-0.115 -0.218,-0.243 -0.507,-0.243c-0.499,0 -0.73,0.384 -0.73,0.961l0,1.345c0,0.622 0.141,1.045 0.679,1.045c0.34,0 0.487,-0.18 0.564,-0.372c0,0.084 0.013,0.263 0.019,0.321l0.391,0c-0.006,-0.186 -0.006,-0.462 -0.006,-0.821l0,-3.652l-0.41,0ZM84.961,17.112c0,-0.372 0.122,-0.602 0.397,-0.602c0.391,0 0.43,0.339 0.43,0.698l0,1.09c0,0.461 -0.084,0.807 -0.443,0.807c-0.269,0 -0.384,-0.224 -0.384,-0.66l0,-1.333Z" style="fill:#000;fill-rule:nonzero;"/><path d="M88.312,17.881l0,-0.73c0,-0.558 -0.173,-1.019 -0.782,-1.019c-0.634,0 -0.813,0.512 -0.813,1.019l0,1.243c0,0.66 0.16,1.089 0.807,1.089c0.692,0 0.782,-0.558 0.782,-0.942l0,-0.026l-0.398,0l0,0.026c0,0.333 -0.064,0.589 -0.384,0.589c-0.34,0 -0.404,-0.365 -0.404,-0.704l0,-0.545l1.192,0ZM87.12,17.541l0,-0.416c0,-0.359 0.077,-0.641 0.404,-0.641c0.352,0 0.397,0.333 0.397,0.635l0,0.422l-0.801,0Z" style="fill:#000;fill-rule:nonzero;"/><path d="M88.805,19.432l0.404,0l0,-2.128c0,-0.66 0.18,-0.794 0.461,-0.794c0.25,0 0.353,0.173 0.353,0.487l0,2.435l0.41,0l0,-2.512c0,-0.596 -0.288,-0.788 -0.634,-0.788c-0.302,0 -0.5,0.134 -0.596,0.384c0,-0.154 -0.007,-0.262 -0.019,-0.333l-0.385,0c0.006,0.16 0.006,0.333 0.006,0.987l0,2.262Z" style="fill:#000;fill-rule:nonzero;"/><path d="M91.048,19.432l0.404,0l0,-3.249l-0.404,0l0,3.249ZM91.048,15.613l0.41,0l0,-0.654l-0.41,0l0,0.654Z" style="fill:#000;fill-rule:nonzero;"/></g></g><path d="M35.445,17.365l0,-0.096c-0.077,-0.511 -0.431,-0.939 -0.918,-1.111c-0.748,-0.194 -1.526,-0.247 -2.294,-0.156c-0.471,-0.791 -0.839,-1.639 -1.096,-2.523c0.327,-0.198 0.612,-0.459 0.839,-0.766c0.264,-0.368 0.436,-0.792 0.505,-1.239c0.095,-0.482 0.032,-0.982 -0.179,-1.426c-0.165,-0.441 -0.653,-0.677 -1.101,-0.533c-0.46,0.261 -0.782,0.711 -0.881,1.23c-0.092,0.417 -0.126,0.844 -0.101,1.271c0.031,0.38 0.091,0.757 0.179,1.128c-0.475,0.204 -0.987,0.312 -1.504,0.317c-0.124,-0.872 -0.267,-1.776 -0.432,-2.753c-0.165,-0.977 -0.339,-1.968 -0.509,-2.849c-0.106,-0.541 -0.413,-2.147 -0.413,-2.147l-0.05,-0.266l-0.207,0.174c-1.68,1.451 -3.256,3.017 -4.716,4.689c-0.455,-0.636 -0.795,-1.348 -1.005,-2.101l0,-0.051c-0.056,-0.188 -0.096,-0.382 -0.119,-0.578c0.656,0.072 1.305,-0.199 1.716,-0.715c0.361,-0.41 0.434,-1.002 0.183,-1.487c-0.251,-0.412 -0.754,-0.602 -1.215,-0.459c-0.712,0.266 -1.124,0.918 -1.23,1.904c-0.317,-0.221 -0.594,-0.496 -0.817,-0.812c0.159,-0.325 0.295,-0.661 0.409,-1.004l0.266,-0.973l-0.551,0.844c-0.124,0.188 -0.215,0.363 -0.303,0.519l-0.105,0.188c-0.115,-0.207 -0.28,-0.5 -0.427,-0.711l-0.564,-0.808l0.284,0.941c0.113,0.346 0.251,0.683 0.413,1.009c-0.226,0.311 -0.499,0.586 -0.807,0.816c-0.088,-0.632 -0.365,-1.224 -0.794,-1.697c-0.209,-0.212 -0.495,-0.331 -0.793,-0.331c-0.432,0 -0.827,0.251 -1.01,0.643c-0.206,0.507 -0.1,1.089 0.271,1.491c0.294,0.38 0.717,0.639 1.188,0.729c0.191,0.035 0.387,0.035 0.578,0c-0.184,0.934 -0.547,1.824 -1.069,2.62c-0.491,-0.555 -2.262,-2.537 -3.211,-3.432c-0.312,-0.289 -1.633,-1.376 -1.689,-1.44l-0.211,-0.174l-0.045,0.27c-0.051,0.298 -1.193,6.882 -1.377,8.047c-0.46,-0.024 -0.914,-0.12 -1.344,-0.284c0.161,-0.711 0.312,-1.987 -0.023,-2.854c-0.161,-0.459 -0.633,-1.032 -1.101,-1.005c-0.417,0.025 -0.78,0.299 -0.918,0.693c-0.177,0.425 -0.23,0.891 -0.151,1.344c0.169,0.892 0.701,1.676 1.468,2.161c-0.244,0.8 -0.578,1.57 -0.995,2.294c-0.723,-0.089 -1.455,-0.064 -2.17,0.074c-0.473,0.069 -0.89,0.352 -1.129,0.766c-0.227,0.329 -0.293,0.745 -0.179,1.128c0.133,0.37 0.404,0.675 0.757,0.849c0.055,0.023 1.413,0.555 3.019,-2.101c0.81,0.074 1.606,0.256 2.367,0.541c-0.032,0.532 -0.046,0.968 -0.037,1.377c-0.012,0.499 0.053,0.997 0.193,1.477c0.172,0.512 0.586,0.909 1.106,1.06c0.334,0.078 0.686,-0.031 0.917,-0.285c0.542,-0.592 0.739,-2.138 -0.027,-2.899c-0.447,-0.464 -0.956,-0.863 -1.514,-1.184c0.027,-0.39 0.069,-0.798 0.114,-1.248l0,-0.041c0.046,-0.416 0.095,-0.831 0.147,-1.243c0.898,-0.026 1.784,-0.206 2.62,-0.533c0.855,-0.327 1.652,-0.792 2.358,-1.376c0.391,-0.324 0.751,-0.685 1.074,-1.078c0.458,0.583 2.087,2.633 2.422,3.175c-0.545,0.781 -1.024,1.606 -1.431,2.468l-0.097,0.215c-0.069,0.152 -0.133,0.303 -0.193,0.459c-0.119,0.303 -0.224,0.615 -0.321,0.918c-0.224,0.745 -0.349,1.516 -0.371,2.294c-0.008,0.444 0.024,0.887 0.096,1.326c0,0.082 0.032,0.165 0.051,0.243l0.05,0.202c0,0.073 0.041,0.151 0.069,0.229c0.1,0.283 0.22,0.559 0.358,0.826l0.082,0.133l0.11,0.151c0.115,0.151 0.244,0.291 0.386,0.418c0.152,0.137 0.321,0.252 0.504,0.344c0.092,0.045 0.189,0.079 0.289,0.101l0.84,0.151l-0.729,-0.459c-0.094,-0.054 -0.185,-0.114 -0.271,-0.179l-0.133,-0.119c-0.06,-0.049 -0.117,-0.103 -0.17,-0.16l-0.078,-0.083l-0.101,-0.128l-0.037,-0.046l-0.041,-0.055c-0.011,-0.024 -0.024,-0.045 -0.041,-0.065c-0.032,-0.04 -0.061,-0.083 -0.087,-0.128l-0.078,-0.133l-0.028,-0.046l-0.092,-0.184c0,-0.036 -0.032,-0.073 -0.05,-0.11l-0.124,-0.321l-0.041,-0.114l-0.032,-0.115c-0.028,-0.092 -0.055,-0.188 -0.074,-0.289c-0.187,-0.931 -0.167,-1.891 0.06,-2.813c0.197,-0.887 0.505,-1.745 0.917,-2.555c0.248,-0.495 0.523,-0.959 0.757,-1.34l0.078,-0.119l0.289,-0.431c0.467,0.687 0.88,1.409 1.235,2.161l0.11,0.248c0.064,0.137 0.124,0.279 0.179,0.422c0.114,0.293 0.22,0.596 0.312,0.917c0.214,0.695 0.335,1.416 0.362,2.143c0.008,0.416 -0.021,0.832 -0.087,1.243c0,0.083 -0.037,0.165 -0.055,0.252l-0.042,0.161l-0.059,0.215c-0.09,0.258 -0.198,0.51 -0.321,0.753l-0.078,0.133c-0.032,0.069 -0.074,0.128 -0.115,0.193l-0.078,0.128l-0.17,0.22c-0.042,0.044 -0.082,0.09 -0.119,0.138c-0.092,0.093 -0.19,0.18 -0.294,0.261l-0.541,0.427l0.674,-0.151c0.101,-0.02 0.198,-0.054 0.289,-0.101c0.067,-0.043 0.13,-0.09 0.189,-0.142l0.16,-0.147l0.124,-0.133l0.064,-0.074l0.092,-0.119c0.043,-0.056 0.082,-0.114 0.119,-0.174l0.092,-0.138l0.041,-0.073l0.106,-0.202c0.023,-0.046 0.046,-0.097 0.064,-0.142l0.142,-0.363c0,-0.05 0.037,-0.101 0.055,-0.156l0.032,-0.11c0.033,-0.115 0.065,-0.229 0.088,-0.34c0.212,-1.019 0.2,-2.073 -0.037,-3.087c-0.207,-0.956 -0.535,-1.881 -0.977,-2.753c-0.216,-0.426 -0.459,-0.867 -0.803,-1.436l-0.096,-0.142c-0.106,-0.161 -0.212,-0.326 -0.322,-0.482c0.555,-0.807 1.863,-2.486 2.386,-3.147c0.553,0.648 1.205,1.204 1.931,1.647c0.761,0.467 1.591,0.811 2.46,1.019c0.472,0.114 0.954,0.182 1.44,0.201c0.142,1.092 0.234,1.955 0.294,2.753c-1.055,0.569 -1.652,1.28 -1.835,2.184c-0.129,0.67 0.068,1.528 0.614,1.794c0.553,0.24 1.205,0.018 1.496,-0.509c0.176,-0.286 0.282,-0.608 0.312,-0.941c0.043,-0.348 0.063,-0.699 0.06,-1.051c0,-0.312 0,-0.646 -0.033,-1.05c0.689,-0.274 1.411,-0.456 2.148,-0.542l0.458,-0.05c0.434,0.758 1.057,1.39 1.808,1.835c0.382,0.219 0.855,0.206 1.225,-0.032c0.357,-0.269 0.554,-0.701 0.523,-1.147ZM34.803,17.26c0.04,0.195 -0.031,0.398 -0.184,0.527c-0.173,0.164 -0.428,0.209 -0.647,0.115c-0.545,-0.304 -0.999,-0.749 -1.312,-1.289c0.34,-0.011 0.68,-0.002 1.019,0.027c0.458,0.041 0.963,0.124 1.124,0.62l0,0ZM31.417,10.126c0.08,-0.019 0.164,0.008 0.22,0.068c0.262,0.342 0.348,0.787 0.234,1.202c-0.042,0.255 -0.129,0.501 -0.257,0.725c-0.021,0.038 -0.044,0.075 -0.069,0.11l-0.027,0.042c-0.157,0.211 -0.346,0.397 -0.56,0.55c-0.121,-0.513 -0.161,-1.043 -0.119,-1.569c0.036,-0.193 0.105,-0.527 0.137,-0.605c0.083,-0.216 0.262,-0.478 0.441,-0.523ZM30.733,16.181l-0.092,0l-0.022,0l-0.074,0l-0.05,0l-0.065,0l-0.041,0c-0.382,0.086 -0.757,0.198 -1.124,0.335c-0.06,-0.743 -0.147,-1.532 -0.28,-2.509c0.541,-0.024 1.074,-0.135 1.578,-0.331c0.238,0.797 0.561,1.567 0.964,2.294c-0.289,0.12 -0.541,0.161 -0.794,0.211l0,0ZM27.953,18.017c0.206,-0.221 0.454,-0.397 0.729,-0.519c0.033,0.757 0,2.193 -0.325,2.565c-0.134,0.121 -0.311,0.183 -0.491,0.169c-0.112,0 -0.219,-0.05 -0.289,-0.137c-0.309,-0.704 -0.16,-1.528 0.376,-2.078l0,0ZM26.118,7.396c0.216,-0.197 0.725,-0.638 1.014,-0.881c0.202,1.179 1.009,5.877 1.179,6.941c-1.009,-0.061 -1.996,-0.315 -2.909,-0.748c-0.939,-0.476 -1.775,-1.134 -2.459,-1.936l0.032,-0.036c0.975,-1.174 2.017,-2.291 3.12,-3.345l0.023,0.005ZM22.448,6.781c-0.286,0.243 -0.673,0.334 -1.037,0.243c0,-0.037 0,-0.078 0,-0.115c0.072,-0.422 0.24,-0.822 0.491,-1.169l0.11,-0.129c0.129,-0.129 0.31,-0.19 0.491,-0.165c0.168,0.027 0.313,0.133 0.39,0.284c0.215,0.464 -0.289,0.923 -0.445,1.033l0,0.018ZM21.952,11.061l-0.72,0.918l-0.33,0.436l-0.597,0.812l-0.165,0.229l-0.307,0.459c-0.276,-0.388 -0.552,-0.775 -0.831,-1.161l-0.459,-0.628c-0.362,-0.459 -0.724,-0.918 -1.091,-1.377c0.503,-0.717 0.879,-1.516 1.11,-2.362c0.071,-0.235 0.121,-0.476 0.147,-0.721c0,-0.064 0,-0.133 0,-0.206c0.335,-0.194 0.636,-0.442 0.89,-0.734l0.055,-0.073l0.124,-0.17c0.03,0.056 0.069,0.107 0.114,0.151l0.042,0.046l0.128,0.142c0.231,0.241 0.497,0.445 0.789,0.606c0.038,0.494 0.146,0.981 0.321,1.445c0.166,0.47 0.378,0.921 0.633,1.349c0.115,0.197 0.244,0.39 0.381,0.578l-0.234,0.261ZM16.607,5.625c0.033,-0.054 0.077,-0.101 0.129,-0.138c0.102,-0.079 0.228,-0.123 0.358,-0.124c0.057,0.001 0.115,0.01 0.169,0.028c0.159,0.058 0.294,0.166 0.386,0.307l0.055,0.087c0.132,0.206 0.245,0.424 0.335,0.652c0.072,0.195 0.115,0.399 0.128,0.606c-0.382,0.061 -0.774,-0.01 -1.11,-0.202c-0.279,-0.197 -0.462,-0.505 -0.5,-0.844c-0.014,-0.127 0.004,-0.254 0.05,-0.372l0,0ZM7.739,10.213c0.06,-0.092 0.155,-0.156 0.262,-0.179c0.08,-0.012 0.161,0.009 0.225,0.059c0.226,0.213 0.386,0.487 0.458,0.79c0.044,0.173 0.073,0.349 0.088,0.527c0.013,0.193 0.013,0.386 0,0.578c-0.028,0.32 -0.078,0.637 -0.152,0.95c-0.112,-0.063 -0.219,-0.133 -0.321,-0.211c-0.478,-0.425 -0.758,-1.031 -0.771,-1.67c-0.019,-0.291 0.055,-0.58 0.211,-0.826l0,-0.018ZM10.157,16.452c-0.656,-0.239 -1.336,-0.406 -2.028,-0.495c0.36,-0.675 0.653,-1.384 0.876,-2.115c0.452,0.163 0.925,0.257 1.404,0.279c-0.064,0.569 -0.197,1.817 -0.247,2.345l-0.005,-0.014ZM11.579,18.044c0.294,0.299 0.48,0.689 0.528,1.106c0.024,0.223 0.017,0.448 -0.023,0.669c-0.02,0.181 -0.094,0.352 -0.211,0.491c-0.252,0.253 -0.601,0.033 -0.753,-0.114c-0.139,-0.14 -0.24,-0.314 -0.293,-0.505c-0.062,-0.237 -0.098,-0.48 -0.11,-0.725c-0.031,-0.51 -0.031,-1.022 0,-1.532c0.311,0.16 0.596,0.367 0.844,0.615l0.018,-0.005ZM6.702,16.989c-0.271,0.357 -0.599,0.668 -0.972,0.917c-0.22,0.138 -0.633,0.331 -0.918,0.042c-0.234,-0.27 -0.253,-0.668 -0.046,-0.959c0.254,-0.276 0.617,-0.427 0.991,-0.413c0.276,-0.028 0.553,-0.042 0.831,-0.041l0.458,0c-0.146,0.215 -0.284,0.394 -0.344,0.468l0,-0.014ZM15.516,11.883c-1.009,0.784 -2.193,1.31 -3.45,1.532c-0.313,0.055 -0.629,0.089 -0.946,0.101c0.12,-0.867 0.257,-1.776 0.423,-2.753c0.165,-0.977 0.339,-1.991 0.509,-2.895l0.092,-0.495l0.211,-1.11l0.825,0.72c0.299,0.266 0.574,0.537 0.867,0.821l0.042,0.041c0.55,0.542 1.128,1.147 1.761,1.836c0.28,0.311 0.565,0.642 0.877,1.018c-0.355,0.436 -0.759,0.83 -1.202,1.174l-0.009,0.01Z" style="fill:#c9a640;fill-rule:nonzero;"/><rect x="41.456" y="9.905" width="0.339" height="9.089" style="fill:#000;"/></g></g></svg>